<?xml version="1.0" encoding="iso-8859-1"?>
<!-- Generator: Adobe Illustrator 19.0.0, SVG Export Plug-In . SVG Version: 6.00 Build 0)  -->
<svg version="1.1" id="Capa_1" xmlns="http://www.w3.org/2000/svg" xmlns:xlink="http://www.w3.org/1999/xlink" x="0px" y="0px"
	 viewBox="0 0 511.995 511.995" style="enable-background:new 0 0 511.995 511.995;" xml:space="preserve">
<circle style="fill:#FFD93B;" cx="255.998" cy="259.387" r="252.608"/>
<path style="fill:#3E4347;" d="M419.31,321.835c-14.688,76.896-82.256,134.832-163.248,134.832
	c-81.152,0-148.72-57.936-163.248-134.832c-1.424-7.424,5.52-13.744,12.784-11.68c100.096,27.632,200.352,27.472,300.928-0.16
	C413.79,308.091,420.734,314.411,419.31,321.835z"/>
<path style="fill:#FFFFFF;" d="M122.782,314.283c24.048,46.16,71.728,59.728,132.624,59.728c60.672,0,108.144-13.52,132.288-59.36
	C299.246,335.899,210.926,335.835,122.782,314.283z"/>
<path style="fill:#F4C534;" d="M508.606,259.387c0,139.568-113.12,252.608-252.608,252.608c-79.408,0-150.304-36.624-196.64-94.016
	c43.344,35.056,98.512,55.968,158.592,55.968c139.488,0,252.608-113.04,252.608-252.608c0-60.08-20.912-115.264-55.968-158.592
	C471.902,109.083,508.606,179.963,508.606,259.387z"/>
<g>
	<path style="fill:#FFFFFF;" d="M232.094,160.651c0,54.848-65.008,122.944-131.52,97.36c-30.4-11.84-52.432-40.608-55.872-73.248
		c-3.152-35.952,15.136-69.952,46.592-86.88C142.686,71.787,232.094,99.435,232.094,160.651z"/>
	<path style="fill:#FFFFFF;" d="M411.55,258.011c-32.576,12.528-65.52,3.552-91.824-19.632
		c-42.224-36.88-60.416-99.968-5.088-133.76c31.6-19.168,76.096-22.016,105.76-6.736
		C486.798,133.275,482.542,230.379,411.55,258.011z"/>
</g>
<g>
	<path style="fill:#3E4347;" d="M488.702,82.795h-8.384c-23.216,0-46.736-1.344-69.2-7.04c-41.488-10.64-90.48,2.096-117.888,30.56
		c-8.832,8.992-21.264,13.328-33.856,13.328h-6.288c-12.736,0-25.312-4.352-34.144-13.472
		c-27.872-28.464-77.168-41.056-118.208-30.416c-22.32,5.696-45.536,7.04-68.448,7.04h-8.992c-5.536,0-10.032,4.496-10.032,10.192
		v31.312c0,4.048,2.688,7.184,6.288,8.992c4.64,2.384,7.792,7.184,7.792,12.736c0,1.168-0.144,2.528-0.608,3.728
		c-27.408,101.552,92.128,183.04,176.752,101.408c17.824-17.664,30.704-38.048,36.544-61.104c1.792-7.184,8.544-11.84,16.032-11.84
		c7.344,0,14.224,4.64,15.872,11.84c5.84,23.072,18.72,43.44,36.544,61.104c84.192,81.344,204.16,0.896,176.752-101.552
		c-1.792-6.736,1.504-13.328,7.184-16.32c3.6-1.808,6.288-5.104,6.288-9.136V92.987C498.734,87.275,494.238,82.795,488.702,82.795z
		 M187.326,232.731c-58.112,51.376-128.816,10.48-135.104-48.832c-2.992-32.96,13.936-63.952,42.688-79.392
		c45.696-23.376,129.728,0.592,129.728,56.176C224.622,188.395,207.838,214.907,187.326,232.731z M459.79,183.899
		c-6.288,59.312-76.848,100.208-135.12,48.832c-20.368-17.84-37.152-44.352-37.152-72.048c0-55.584,84.032-79.536,129.424-56.176
		C445.854,119.947,462.782,150.939,459.79,183.899z"/>
	<circle style="fill:#3E4347;" cx="363.486" cy="178.891" r="38.848"/>
</g>
<ellipse transform="matrix(-0.7071 -0.7071 0.7071 -0.7071 529.241 547.6993)" style="fill:#FFFFFF;" cx="378.053" cy="164.24" rx="11.92" ry="8.32"/>
<circle style="fill:#3E4347;" cx="152.222" cy="178.891" r="38.848"/>
<ellipse transform="matrix(-0.7071 -0.7071 0.7071 -0.7071 168.6083 398.3059)" style="fill:#FFFFFF;" cx="166.796" cy="164.233" rx="11.92" ry="8.32"/>
<g>
	<path style="fill:#3E4347;" d="M194.51,25.931c0.624-1.984-91.616,0.48-119.024,51.728C68.526,77.563,136.062-54.405,194.51,25.931
		z"/>
	<path style="fill:#3E4347;" d="M317.486,25.931c-0.624-1.984,91.616,0.48,119.024,51.728
		C443.47,77.563,375.934-54.405,317.486,25.931z"/>
</g>
<path style="fill:#E24B4B;" d="M242.03,402.299c-52.784,0-75.6-28.608-86.144,1.696c-2.032,5.824-2.592,11.664-2.112,17.408
	c28.208,22.048,63.664,35.264,102.288,35.264c38.608,0,74.064-13.264,102.304-35.376c0.464-5.712-0.112-11.52-2.128-17.312
	C345.694,373.691,294.814,402.299,242.03,402.299z"/>
<g>
</g>
<g>
</g>
<g>
</g>
<g>
</g>
<g>
</g>
<g>
</g>
<g>
</g>
<g>
</g>
<g>
</g>
<g>
</g>
<g>
</g>
<g>
</g>
<g>
</g>
<g>
</g>
<g>
</g>
</svg>
