<?xml version="1.0" encoding="UTF-8"?>
<svg width="220" viewBox="0 0 100 120" style='stroke-width: 0px; background-color: #000'>							
    <g id="SvgjsG1211" featurekey="symbol1" fill="#000" transform="matrix(1.0995971836532619,0,0,1.0995971836532619,-9.980251380602663,5.591191279219645)">
        <symbol viewBox="-13.888 -12.758 27.154 25.516">
            <polygon fill="#000" points="-5.663,2.949 0,12.758 5.664,2.949  "></polygon>
            <g>
                <path fill="#000" d="M-11.203-12.758h-0.499c-1.202,0-2.186,0.984-2.186,2.186v6.672c0,1.202,0.984,2.186,2.186,2.186h0.499    c1.202,0,2.186-0.984,2.186-2.186v-6.672C-9.017-11.774-10.001-12.758-11.203-12.758z"></path>
                <path fill="#000" d="M-3.776-12.758h-0.499c-1.202,0-2.186,0.984-2.186,2.186v6.672c0,1.202,0.984,2.186,2.186,2.186h0.499    c1.202,0,2.186-0.984,2.186-2.186v-6.672C-1.59-11.774-2.573-12.758-3.776-12.758z"></path>
                <path fill="#000" d="M3.652-12.758H3.153c-1.202,0-2.186,0.984-2.186,2.186l0,6.672c0,1.202,0.984,2.186,2.186,2.186h0.499    c1.202,0,2.186-0.984,2.186-2.186v-6.672C5.838-11.774,4.854-12.758,3.652-12.758z"></path>
                <path fill="#000" d="M11.079-12.758H10.58c-1.202,0-2.186,0.984-2.186,2.186v6.672c0,1.202,0.984,2.186,2.186,2.186h0.499    c1.202,0,2.186-0.984,2.186-2.186v-6.672C13.265-11.774,12.282-12.758,11.079-12.758z"></path>
            </g>
        </symbol>
        <g display="none">
            <rect x="-145.242" y="-529.245" display="inline" fill="#000"></rect>
        </g>
        <g>
            <path d="M24.694,44.304c-2.469,0-4.48,2.01-4.48,4.48s2.01,4.48,4.48,4.48V44.304z"></path>
            <path d="M75.305,44.304v8.959c2.469,0,4.48-2.01,4.48-4.48S77.774,44.304,75.305,44.304z"></path>
            <path d="M58.701,54.544h3.607c4.399,0,7.978-3.579,7.978-7.978V43.4c0-1.93-1.57-3.499-3.5-3.499H54.911   c-1.887,0-3.134,1.894-3.649,3.587h-2.526c-0.515-1.693-1.762-3.587-3.649-3.587H33.212c-1.93,0-3.5,1.569-3.5,3.499v3.166   c0,4.399,3.579,7.978,7.979,7.978h3.607c4.25,0,7.708-3.458,7.708-7.708v-0.169h1.988v0.169   C50.993,51.087,54.451,54.544,58.701,54.544z M54.173,45.078c0-0.642,0.513-1.729,0.861-1.997h11.753   c0.173,0,0.32,0.146,0.32,0.319v3.166c0,2.646-2.153,4.798-4.798,4.798h-3.607c-2.497,0-4.528-2.031-4.528-4.528V45.078z    M45.826,46.837c0,2.497-2.031,4.528-4.528,4.528h-3.607c-2.646,0-4.799-2.153-4.799-4.798V43.4c0-0.173,0.146-0.319,0.32-0.319   h11.753c0.348,0.268,0.861,1.355,0.861,1.997V46.837z"></path>
            <path d="M39.852,44.736c-2.463,0-4.467,2.004-4.467,4.467h1.701c0-1.525,1.241-2.766,2.766-2.766c1.524,0,2.765,1.241,2.765,2.766   h1.701C44.318,46.74,42.315,44.736,39.852,44.736z"></path>
            <path d="M60.147,46.437c1.525,0,2.766,1.241,2.766,2.766h1.701c0-2.463-2.004-4.467-4.467-4.467s-4.466,2.004-4.466,4.467h1.701   C57.382,47.678,58.623,46.437,60.147,46.437z"></path>
            <path d="M51.608,8.833c2.014-0.038,4.063-0.518,5.926-1.389l0.77-0.368c0.484-0.233,1.028-0.494,1.614-0.761   c-2.075,0.29-4.142,0.581-6.181,0.179c-1.793-0.354-3.437-1.225-5.174-1.796c-0.739-0.243-1.495-0.4-2.257-0.517   c-0.003,0.016-0.01,0.036-0.013,0.051c-0.199,1.017,0.061,2.186,0.646,2.909C47.881,8.305,49.445,8.881,51.608,8.833z"></path>
            <path d="M76.984,26.792c-0.657-1.964,0.027-4.087,0.238-6.146c0.689-6.716-4.658-13.358-11.23-14.511   c-2.625,0.516-5.159,1.732-6.904,2.572L58.3,9.082c-2.091,0.978-4.393,1.517-6.658,1.559c-0.079,0.001-0.158,0.002-0.236,0.002   c-2.591,0-4.618-0.815-5.871-2.363c-0.892-1.102-1.288-2.761-1.033-4.264c-6.87-0.201-13.888,4.261-16.042,10.877   c-0.642,1.971-1.048,4.285-2.803,5.389c-0.852,0.536-1.873,0.674-2.857,0.918c-0.65,1.199-0.847,2.329-0.556,3.32   c0.306,1.044,1.157,1.891,2.275,2.266c2.907,0.979,4.616-1.236,7.155-4.928c1.657-2.408,3.37-4.898,5.841-6.177   c3.03-1.566,5.808-0.189,8.261,1.026c0.629,0.312,1.241,0.614,1.842,0.866c0.609,0.255,1.207,0.457,1.799,0.56   c5.605,0.975,6.976,0.136,9.463-1.389c0.288-0.176,0.593-0.361,0.912-0.55c0.241-0.143,0.488-0.288,0.754-0.436l0.486,0.874   c4.074,1.696,7.28,5.454,9.034,9.595c0.182,0.43,0.329,0.875,0.461,1.326c0.198,0.972,0.326,1.966,0.356,2.981l0.005,0.08   c0.019,0.167,0.017,0.333,0.017,0.499v8.854c-0.054,1.242-0.077,2.46-0.011,3.627c0.004,0.001,0.008,0.001,0.011,0.002v9.674   c-0.286,0.3-0.532,0.563-0.6,0.675c-0.621,1.007-0.932,2.099-1.271,3.22c-0.584,1.949-0.429,4.59-2.109,5.639   c-4.159,2.598-7.993-3.851-10.874-5.376c-1.808-0.951-3.888-1.13-5.884-1.13c-0.057,0-0.111,0.004-0.166,0.005   c-0.055-0.002-0.109-0.005-0.166-0.005c-1.996,0-4.077,0.179-5.884,1.13c-2.881,1.525-6.715,7.974-10.874,5.376   c-1.68-1.05-1.525-3.69-2.109-5.639c-0.339-1.12-0.65-2.212-1.271-3.22c-0.054-0.089-0.223-0.275-0.431-0.497V31.112   c0-0.326,0.024-0.641,0.041-0.96c2.964,1.456,6.385,2.292,10.05,2.292c7.266,0,13.651-3.249,17.284-8.191   c1.229-1.647,2.134-3.475,2.67-5.43c-2.326,1.398-4.391,2.297-10.235,1.28c-1.432-0.249-2.79-0.913-4.104-1.564   c-0.027-0.014-0.055-0.027-0.083-0.04c-2.321-1.15-4.325-2.143-6.454-1.042c-2.026,1.049-3.595,3.329-5.112,5.535   c-0.04,0.058-0.081,0.117-0.121,0.176c-1.217,1.768-2.528,3.628-4.149,4.765C28.1,28.6,27.043,29.02,25.832,29.02   c-0.609,0-1.257-0.105-1.949-0.337c-1.738-0.583-3.068-1.929-3.558-3.599c-0.193-0.656-0.287-1.506-0.117-2.506   c-1.608,1.553-2.288,4.106-1.955,6.391c0.429,2.937,2.12,5.515,3.768,7.984c1.429,2.14,3.628,4.281,5.244,6.421v33.048   c0,10.791,8.759,19.57,19.525,19.57h6.566c10.779,0,19.548-8.779,19.548-19.57V43.709c2.745-0.259,6.21-1.916,7.546-3.698   c1.696-2.263,1.845-5.572,0.358-7.978C79.664,30.183,77.674,28.855,76.984,26.792z M50,64.123c-2.559,0-4.641-2.082-4.641-4.64h2   c0,1.456,1.185,2.64,2.641,2.64c1.456,0,2.64-1.185,2.64-2.64h2C54.64,62.041,52.558,64.123,50,64.123z"></path>
        </g>
    </g>
</svg>