<?xml version="1.0" encoding="UTF-8" standalone="no"?>
<!-- Created with Inkscape (http://www.inkscape.org/) -->

<svg
   xmlns:dc="http://purl.org/dc/elements/1.1/"
   xmlns:cc="http://creativecommons.org/ns#"
   xmlns:rdf="http://www.w3.org/1999/02/22-rdf-syntax-ns#"
   xmlns:svg="http://www.w3.org/2000/svg"
   xmlns="http://www.w3.org/2000/svg"
   xmlns:sodipodi="http://sodipodi.sourceforge.net/DTD/sodipodi-0.dtd"
   xmlns:inkscape="http://www.inkscape.org/namespaces/inkscape"
   width="2048"
   height="2048"
   id="svg2"
   version="1.1"
   inkscape:version="0.48.5 r10040"
   sodipodi:docname="Portal Design - Logotipo Horizontal - Ícone + Nome - 1.0.0.svg"
   inkscape:export-filename="./Portal Design - Logotipo Quadrado - Somente Ícone - 1.0.0 - 2048x2048.png"
   inkscape:export-xdpi="90"
   inkscape:export-ydpi="90">
  <sodipodi:namedview
     id="base"
     pagecolor="#ffffff"
     bordercolor="#666666"
     borderopacity="1.0"
     inkscape:pageopacity="0.0"
     inkscape:pageshadow="2"
     inkscape:zoom="0.04"
     inkscape:cx="78.949786"
     inkscape:cy="-2233.8547"
     inkscape:document-units="px"
     inkscape:current-layer="layer1"
     showgrid="false"
     inkscape:window-width="1321"
     inkscape:window-height="744"
     inkscape:window-x="45"
     inkscape:window-y="24"
     inkscape:window-maximized="1"
     borderlayer="true"
     inkscape:snap-bbox="true"
     inkscape:bbox-paths="true"
     inkscape:bbox-nodes="true"
     inkscape:snap-bbox-edge-midpoints="true"
     inkscape:snap-bbox-midpoints="true"
     inkscape:object-paths="true"
     inkscape:snap-intersection-paths="true"
     inkscape:object-nodes="true"
     inkscape:snap-smooth-nodes="true"
     inkscape:snap-midpoints="true"
     inkscape:snap-object-midpoints="true"
     inkscape:snap-center="true"
     inkscape:snap-page="true"
     inkscape:snap-nodes="false"
     fit-margin-top="0"
     fit-margin-left="0"
     fit-margin-right="0"
     fit-margin-bottom="0"
     showguides="true"
     inkscape:snap-global="false">
    <sodipodi:guide
       id="guide3895"
       position="0.0,0"
       orientation="2048.0,0" />
    <sodipodi:guide
       id="guide3897"
       position="1024.0,0"
       orientation="2048.0,0" />
    <sodipodi:guide
       id="guide3899"
       position="2048.0,0"
       orientation="2048.0,0" />
    <sodipodi:guide
       id="guide3901"
       position="0,0.0"
       orientation="0,2048.0" />
    <sodipodi:guide
       id="guide3903"
       position="0,1024.0"
       orientation="0,2048.0" />
    <sodipodi:guide
       id="guide3905"
       position="0,2048.0"
       orientation="0,2048.0" />
  </sodipodi:namedview>
  <defs
     id="defs4">
    <clipPath
       clipPathUnits="userSpaceOnUse"
       id="clipPath3006-9-8">
      <path
         sodipodi:type="arc"
         style="fill:#ffffff;fill-opacity:1;stroke:none;display:inline"
         id="path3008-1-1"
         sodipodi:cx="290.5"
         sodipodi:cy="275.5"
         sodipodi:rx="192.5"
         sodipodi:ry="192.5"
         d="m 483,275.5 a 192.5,192.5 0 1 1 -385,0 192.5,192.5 0 1 1 385,0 z"
         transform="matrix(1.2020779,0,0,1.2020779,-93.20363,-75.172465)"
         inkscape:export-xdpi="90"
         inkscape:export-ydpi="90" />
    </clipPath>
    <mask
       maskUnits="userSpaceOnUse"
       id="mask3818-4">
      <path
         inkscape:export-ydpi="90"
         inkscape:export-xdpi="90"
         transform="matrix(1.2020779,0,0,1.2020779,-93.20363,-75.172466)"
         d="m 483,275.5 a 192.5,192.5 0 1 1 -385,0 192.5,192.5 0 1 1 385,0 z"
         sodipodi:ry="192.5"
         sodipodi:rx="192.5"
         sodipodi:cy="275.5"
         sodipodi:cx="290.5"
         id="path3820-9"
         style="fill:#ffffff;fill-opacity:1;stroke:none;display:inline"
         sodipodi:type="arc" />
    </mask>
    <clipPath
       clipPathUnits="userSpaceOnUse"
       id="clipPath3006">
      <path
         sodipodi:type="arc"
         style="fill:#ffffff;fill-opacity:1;stroke:none;display:inline"
         id="path3008"
         sodipodi:cx="290.5"
         sodipodi:cy="275.5"
         sodipodi:rx="192.5"
         sodipodi:ry="192.5"
         d="m 483,275.5 a 192.5,192.5 0 1 1 -385,0 192.5,192.5 0 1 1 385,0 z"
         transform="matrix(1.2020779,0,0,1.2020779,-93.20363,-75.172465)"
         inkscape:export-xdpi="90"
         inkscape:export-ydpi="90" />
    </clipPath>
    <clipPath
       clipPathUnits="userSpaceOnUse"
       id="clipPath3006-9">
      <path
         sodipodi:type="arc"
         style="fill:#ffffff;fill-opacity:1;stroke:none;display:inline"
         id="path3008-1"
         sodipodi:cx="290.5"
         sodipodi:cy="275.5"
         sodipodi:rx="192.5"
         sodipodi:ry="192.5"
         d="m 483,275.5 a 192.5,192.5 0 1 1 -385,0 192.5,192.5 0 1 1 385,0 z"
         transform="matrix(1.2020779,0,0,1.2020779,-93.20363,-75.172465)"
         inkscape:export-xdpi="90"
         inkscape:export-ydpi="90" />
    </clipPath>
    <mask
       id="mask3818-0"
       maskUnits="userSpaceOnUse">
      <path
         sodipodi:type="arc"
         style="fill:#ffffff;fill-opacity:1;stroke:none;display:inline"
         id="path3820-8"
         sodipodi:cx="290.5"
         sodipodi:cy="275.5"
         sodipodi:rx="192.5"
         sodipodi:ry="192.5"
         d="m 483,275.5 a 192.5,192.5 0 1 1 -385,0 192.5,192.5 0 1 1 385,0 z"
         transform="matrix(1.2020779,0,0,1.2020779,-93.20363,-75.172466)"
         inkscape:export-xdpi="90"
         inkscape:export-ydpi="90" />
    </mask>
    <mask
       id="mask3818-2"
       maskUnits="userSpaceOnUse">
      <path
         sodipodi:type="arc"
         style="fill:#ffffff;fill-opacity:1;stroke:none;display:inline"
         id="path3820-2-2"
         sodipodi:cx="290.5"
         sodipodi:cy="275.5"
         sodipodi:rx="192.5"
         sodipodi:ry="192.5"
         d="m 483,275.5 a 192.5,192.5 0 1 1 -385,0 192.5,192.5 0 1 1 385,0 z"
         transform="matrix(1.2020779,0,0,1.2020779,-93.20363,-75.172466)"
         inkscape:export-xdpi="90"
         inkscape:export-ydpi="90" />
    </mask>
    <clipPath
       clipPathUnits="userSpaceOnUse"
       id="clipPath3934">
      <path
         inkscape:connector-curvature="0"
         style="fill:#ff3232;fill-opacity:1;stroke:none"
         d="m 0,0 0,1024 1024,0 L 1024,0 0,0 z m 278.4375,333.84375 119.78125,0 c 9.83697,42.31453 19.85954,84.58596 29.9375,126.84375 9.86978,-42.28798 20.05132,-84.50237 29.6875,-126.84375 l 108.90625,0 c 9.63586,42.34141 19.8178,84.55578 29.6875,126.84375 10.07827,-42.25772 20.10031,-84.52927 29.9375,-126.84375 l 119.1875,0 c -26.26221,110.73099 -52.49625,221.46929 -78.28125,332.3125 l -122.8125,0 c -10.59439,-45.55681 -21.46638,-91.04874 -32.375,-136.53125 -10.66279,45.51136 -21.5615,90.96897 -32,136.53125 l -122.8125,0 c -25.71418,-110.03502 -52.0286,-219.92873 -78.25,-329.84375 l -0.59375,-2.46875 z"
         id="path3936" />
    </clipPath>
    <clipPath
       clipPathUnits="userSpaceOnUse"
       id="clipPath3929">
      <path
         id="path3931"
         d="m 0,0 0,1024 1024,0 L 1024,0 0,0 z m 278.4375,333.84375 119.78125,0 c 9.83697,42.31453 19.85954,84.58596 29.9375,126.84375 9.86978,-42.28798 20.05132,-84.50237 29.6875,-126.84375 l 108.90625,0 c 9.63586,42.34141 19.8178,84.55578 29.6875,126.84375 10.07827,-42.25772 20.10031,-84.52927 29.9375,-126.84375 l 119.1875,0 c -26.26221,110.73099 -52.49625,221.46929 -78.28125,332.3125 l -122.8125,0 c -10.59439,-45.55681 -21.46638,-91.04874 -32.375,-136.53125 -10.66279,45.51136 -21.5615,90.96897 -32,136.53125 l -122.8125,0 c -25.71418,-110.03502 -52.0286,-219.92873 -78.25,-329.84375 l -0.59375,-2.46875 z"
         style="fill:#ff3232;fill-opacity:1;stroke:none"
         inkscape:connector-curvature="0" />
    </clipPath>
    <mask
       id="mask3818"
       maskUnits="userSpaceOnUse">
      <path
         sodipodi:type="arc"
         style="fill:#ffffff;fill-opacity:1;stroke:none;display:inline"
         id="path3820"
         sodipodi:cx="290.5"
         sodipodi:cy="275.5"
         sodipodi:rx="192.5"
         sodipodi:ry="192.5"
         d="m 483,275.5 a 192.5,192.5 0 1 1 -385,0 192.5,192.5 0 1 1 385,0 z"
         transform="matrix(1.2020779,0,0,1.2020779,-93.20363,-75.172466)"
         inkscape:export-xdpi="90"
         inkscape:export-ydpi="90" />
    </mask>
  </defs>
  <metadata
     id="metadata7">
    <rdf:RDF>
      <cc:Work
         rdf:about="">
        <dc:format>image/svg+xml</dc:format>
        <dc:type
           rdf:resource="http://purl.org/dc/dcmitype/StillImage" />
        <dc:title></dc:title>
      </cc:Work>
    </rdf:RDF>
  </metadata>
  <g
     inkscape:label="Camada 1"
     inkscape:groupmode="layer"
     id="layer1"
     transform="translate(-317.55875,1048.9015)">
    <g
       transform="matrix(2.0086469,0,0,2.0086469,-1890.9288,644.28405)"
       id="g3861">
      <path
         style="fill:#333333;fill-opacity:1;stroke:none"
         d="m 1927.4375,-26.8125 c -3.3524,0.07344 -7.1708,1.598694 -10.625,6.15625 -4.903,6.835632 -643.3635,893.27659 -788.7187,1155.06245 3.4659,1.1301 7.0146,2.2863 10.5937,3.5626 22.4324,7.9982 47.2268,18.9279 73.6875,33.8124 31.47,17.7026 65.3159,40.999 100.4375,71.5313 C 1472.4187,984.45499 1934.4139,-0.05262994 1938,-7.65625 c 3.3155,-8.514706 0.048,-14.635407 -3.3438,-17 -0.2121,-0.147763 -0.4414,-0.293145 -0.6874,-0.4375 -1.6144,-0.947662 -3.9239,-1.775867 -6.5313,-1.71875 z m -816.9063,1194.7813 c -2.4601,5.1291 -4.5491,9.8079 -6.25,13.9687 -54.017,132.1446 -134.99557,290.7891 -157.4062,351.2813 42.95377,6.6425 80.2702,30.3115 104.8438,63.9062 41.8408,-48.8743 140.6832,-196.2132 229.3437,-306.9062 3.3793,-4.2192 7.1429,-9.3124 11.2187,-15.1876 -31.8717,-28.1815 -62.4543,-49.8259 -90.8124,-66.4062 -27.4402,-16.0436 -52.8034,-27.3693 -75.3438,-35.4062 -5.3875,-1.921 -10.5648,-3.6866 -15.5938,-5.25 z"
         id="path3021"
         inkscape:connector-curvature="0"
         transform="matrix(0.52516433,0,0,0.52516433,961.78994,-828.86591)" />
      <g
         id="g3795">
        <path
           id="path3793"
           d="m 912.875,1881 c -0.67953,-0.042 -1.19085,-0.018 -1.875,-0.062 -6.62109,-0.4269 -13.47754,-0.9658 -20.40625,-1.625 -6.92871,-0.6592 -13.92857,-1.4375 -20.9375,-2.375 -7.00893,-0.9375 -14.01326,-2.0194 -20.875,-3.2813 -6.86174,-1.2618 -13.60659,-2.7114 -20.09375,-4.3437 -6.48716,-1.6323 -12.70857,-3.4513 -18.59375,-5.5 -2.94259,-1.0243 -5.81304,-2.1129 -8.5625,-3.25 -2.74946,-1.1371 -5.37835,-2.3382 -7.90625,-3.5937 -2.5279,-1.2556 -4.94083,-2.5577 -7.21875,-3.9376 -2.27792,-1.3798 -4.43799,-2.8339 -6.4375,-4.3437 -1.99951,-1.5098 -3.83857,-3.0732 -5.53125,-4.7187 -1.69268,-1.6456 -3.23633,-3.3692 -4.59375,-5.1563 -1.35742,-1.7871 -2.53751,-3.6594 -3.53125,-5.5937 -0.99374,-1.9344 -1.80462,-3.9439 -2.40625,-6.0313 -0.60163,-2.0874 -1.0064,-4.2538 -1.1875,-6.5 -0.1811,-2.2462 -0.14286,-4.558 0.125,-6.9687 0.26786,-2.4108 0.38008,-4.7882 0.3125,-7.0938 -0.0676,-2.3056 -0.30559,-4.5475 -0.6875,-6.75 -0.38191,-2.2025 -0.91861,-4.3362 -1.59375,-6.4375 -0.67514,-2.1013 -1.49023,-4.1543 -2.4375,-6.1563 -0.94727,-2.0019 -2.02046,-3.9704 -3.21875,-5.875 -1.19829,-1.9045 -2.50928,-3.7534 -3.9375,-5.5624 -1.42822,-1.8091 -2.98795,-3.5658 -4.625,-5.2813 -1.63705,-1.7155 -3.36272,-3.4074 -5.1875,-5.0313 -1.82478,-1.6238 -3.72735,-3.1845 -5.71875,-4.7187 -1.9914,-1.5342 -4.08182,-3.0224 -6.21875,-4.4687 -0.88724,-0.6006 -1.90275,-1.1019 -2.8125,-1.6876 -32.24035,71.6399 -83.6371,116.0111 -189.28125,135.6876 -17.30144,3.2224 -11.59123,24.3125 0,24.3124 124.7355,0 268.22893,-0.586 375.4375,-33.6562 z"
           style="fill:#3f9ee6;fill-opacity:1;stroke:none"
           transform="matrix(0.52516433,0,0,0.52516433,961.78994,-828.86591)"
           inkscape:connector-curvature="0" />
        <path
           transform="matrix(0.52516433,0,0,0.52516433,961.78994,-828.86591)"
           id="path3849"
           d="m 909.9375,1549.3125 c -78.85856,0 -144.44172,56.8714 -157.9375,131.8437 -7.27251,27.1414 -15.40977,51.5651 -25.28125,73.5 0.90975,0.5857 1.92526,1.087 2.8125,1.6876 2.13693,1.4463 4.22735,2.9345 6.21875,4.4687 1.9914,1.5342 3.89397,3.0949 5.71875,4.7187 1.82478,1.6239 3.55045,3.3158 5.1875,5.0313 1.63705,1.7155 3.19678,3.4722 4.625,5.2813 1.42822,1.809 2.73921,3.6579 3.9375,5.5624 1.19829,1.9046 2.27148,3.8731 3.21875,5.875 0.94727,2.002 1.76236,4.055 2.4375,6.1563 0.67514,2.1013 1.21184,4.235 1.59375,6.4375 0.38191,2.2025 0.61992,4.4444 0.6875,6.75 0.0676,2.3056 -0.0446,4.683 -0.3125,7.0938 -0.26786,2.4107 -0.3061,4.7225 -0.125,6.9687 0.1811,2.2462 0.58587,4.4126 1.1875,6.5 0.60163,2.0874 1.41251,4.0969 2.40625,6.0313 0.99374,1.9343 2.17383,3.8066 3.53125,5.5937 1.35742,1.7871 2.90107,3.5107 4.59375,5.1563 1.69268,1.6455 3.53174,3.2089 5.53125,4.7187 1.99951,1.5098 4.15958,2.9639 6.4375,4.3437 2.27792,1.3799 4.69085,2.682 7.21875,3.9376 2.5279,1.2555 5.15679,2.4566 7.90625,3.5937 2.74946,1.1371 5.61991,2.2257 8.5625,3.25 5.88518,2.0487 12.10659,3.8677 18.59375,5.5 6.48716,1.6323 13.23201,3.0819 20.09375,4.3437 6.86174,1.2619 13.86607,2.3438 20.875,3.2813 7.00893,0.9375 14.00879,1.7158 20.9375,2.375 6.92871,0.6592 13.78516,1.1981 20.40625,1.625 0.68415,0.044 1.19547,0.021 1.875,0.062 61.84157,-19.076 111.6529,-48.902 138.7188,-95.7812 11.9903,-22.4815 18.7812,-48.1795 18.7812,-75.4376 0,-88.6258 -71.81153,-160.4687 -160.4375,-160.4687 z"
           style="fill:#2283b4;fill-opacity:1;stroke:none"
           inkscape:connector-curvature="0" />
      </g>
    </g>
  </g>
</svg>
